<mxfile host="app.diagrams.net" modified="2023-08-16T23:24:42.503Z" agent="Mozilla/5.0 (X11; Linux x86_64; rv:102.0) Gecko/20100101 Firefox/102.0" etag="NHwYqCyUT4i7MPQMKhor" version="21.6.8" type="github">
  <diagram name="Página-1" id="FDXYAhesF8f_PwM4DUZ1">
    <mxGraphModel dx="1793" dy="983" grid="1" gridSize="10" guides="1" tooltips="1" connect="1" arrows="1" fold="1" page="1" pageScale="1" pageWidth="827" pageHeight="1169" math="0" shadow="0">
      <root>
        <mxCell id="0" />
        <mxCell id="1" parent="0" />
        <mxCell id="gl3vnEG3UQ_y_4TwcK3I-16" value="" style="edgeStyle=orthogonalEdgeStyle;rounded=0;orthogonalLoop=1;jettySize=auto;html=1;" edge="1" parent="1" source="gl3vnEG3UQ_y_4TwcK3I-2" target="gl3vnEG3UQ_y_4TwcK3I-6">
          <mxGeometry relative="1" as="geometry" />
        </mxCell>
        <mxCell id="gl3vnEG3UQ_y_4TwcK3I-2" value="salfun&lt;br&gt;&lt;div&gt;salmin&lt;/div&gt;&lt;div&gt;qtdsalmin&lt;br&gt;&lt;/div&gt;" style="rounded=1;whiteSpace=wrap;html=1;" vertex="1" parent="1">
          <mxGeometry x="360" y="150" width="120" height="60" as="geometry" />
        </mxCell>
        <mxCell id="gl3vnEG3UQ_y_4TwcK3I-15" value="" style="edgeStyle=orthogonalEdgeStyle;rounded=0;orthogonalLoop=1;jettySize=auto;html=1;" edge="1" parent="1" source="gl3vnEG3UQ_y_4TwcK3I-5" target="gl3vnEG3UQ_y_4TwcK3I-2">
          <mxGeometry relative="1" as="geometry" />
        </mxCell>
        <mxCell id="gl3vnEG3UQ_y_4TwcK3I-5" value="inicio" style="strokeWidth=2;html=1;shape=mxgraph.flowchart.terminator;whiteSpace=wrap;" vertex="1" parent="1">
          <mxGeometry x="370" y="30" width="100" height="60" as="geometry" />
        </mxCell>
        <mxCell id="gl3vnEG3UQ_y_4TwcK3I-17" value="" style="edgeStyle=orthogonalEdgeStyle;rounded=0;orthogonalLoop=1;jettySize=auto;html=1;" edge="1" parent="1" source="gl3vnEG3UQ_y_4TwcK3I-6" target="gl3vnEG3UQ_y_4TwcK3I-11">
          <mxGeometry relative="1" as="geometry" />
        </mxCell>
        <mxCell id="gl3vnEG3UQ_y_4TwcK3I-6" value="&quot;salário do&lt;br&gt;funcionário&quot;" style="strokeWidth=2;html=1;shape=mxgraph.flowchart.display;whiteSpace=wrap;" vertex="1" parent="1">
          <mxGeometry x="370" y="280" width="100" height="60" as="geometry" />
        </mxCell>
        <mxCell id="gl3vnEG3UQ_y_4TwcK3I-20" value="" style="edgeStyle=orthogonalEdgeStyle;rounded=0;orthogonalLoop=1;jettySize=auto;html=1;" edge="1" parent="1" source="gl3vnEG3UQ_y_4TwcK3I-8" target="gl3vnEG3UQ_y_4TwcK3I-13">
          <mxGeometry relative="1" as="geometry" />
        </mxCell>
        <mxCell id="gl3vnEG3UQ_y_4TwcK3I-8" value="salMin" style="html=1;strokeWidth=2;shape=manualInput;whiteSpace=wrap;rounded=1;size=26;arcSize=11;" vertex="1" parent="1">
          <mxGeometry x="370" y="610" width="100" height="60" as="geometry" />
        </mxCell>
        <mxCell id="gl3vnEG3UQ_y_4TwcK3I-19" value="" style="edgeStyle=orthogonalEdgeStyle;rounded=0;orthogonalLoop=1;jettySize=auto;html=1;" edge="1" parent="1" source="gl3vnEG3UQ_y_4TwcK3I-9" target="gl3vnEG3UQ_y_4TwcK3I-8">
          <mxGeometry relative="1" as="geometry" />
        </mxCell>
        <mxCell id="gl3vnEG3UQ_y_4TwcK3I-9" value="&quot;salário minimo&quot;" style="strokeWidth=2;html=1;shape=mxgraph.flowchart.display;whiteSpace=wrap;" vertex="1" parent="1">
          <mxGeometry x="370" y="500" width="100" height="60" as="geometry" />
        </mxCell>
        <mxCell id="gl3vnEG3UQ_y_4TwcK3I-18" value="" style="edgeStyle=orthogonalEdgeStyle;rounded=0;orthogonalLoop=1;jettySize=auto;html=1;" edge="1" parent="1" source="gl3vnEG3UQ_y_4TwcK3I-11" target="gl3vnEG3UQ_y_4TwcK3I-9">
          <mxGeometry relative="1" as="geometry" />
        </mxCell>
        <mxCell id="gl3vnEG3UQ_y_4TwcK3I-11" value="salfun" style="html=1;strokeWidth=2;shape=manualInput;whiteSpace=wrap;rounded=1;size=26;arcSize=11;" vertex="1" parent="1">
          <mxGeometry x="370" y="380" width="100" height="60" as="geometry" />
        </mxCell>
        <mxCell id="gl3vnEG3UQ_y_4TwcK3I-21" value="" style="edgeStyle=orthogonalEdgeStyle;rounded=0;orthogonalLoop=1;jettySize=auto;html=1;" edge="1" parent="1" source="gl3vnEG3UQ_y_4TwcK3I-12" target="gl3vnEG3UQ_y_4TwcK3I-14">
          <mxGeometry relative="1" as="geometry" />
        </mxCell>
        <mxCell id="gl3vnEG3UQ_y_4TwcK3I-12" value="&quot;Quant. Sal.&lt;br&gt;Mínimo: &quot;,qtdSalMin&quot;" style="strokeWidth=2;html=1;shape=mxgraph.flowchart.display;whiteSpace=wrap;" vertex="1" parent="1">
          <mxGeometry x="370" y="830" width="100" height="60" as="geometry" />
        </mxCell>
        <mxCell id="gl3vnEG3UQ_y_4TwcK3I-22" value="" style="edgeStyle=orthogonalEdgeStyle;rounded=0;orthogonalLoop=1;jettySize=auto;html=1;" edge="1" parent="1" source="gl3vnEG3UQ_y_4TwcK3I-13" target="gl3vnEG3UQ_y_4TwcK3I-12">
          <mxGeometry relative="1" as="geometry" />
        </mxCell>
        <mxCell id="gl3vnEG3UQ_y_4TwcK3I-13" value="qtdSalMin&amp;lt;-&lt;br&gt;SalFun/SalMin" style="rounded=1;whiteSpace=wrap;html=1;" vertex="1" parent="1">
          <mxGeometry x="360" y="720" width="120" height="60" as="geometry" />
        </mxCell>
        <mxCell id="gl3vnEG3UQ_y_4TwcK3I-14" value="Fim" style="strokeWidth=2;html=1;shape=mxgraph.flowchart.terminator;whiteSpace=wrap;" vertex="1" parent="1">
          <mxGeometry x="370" y="930" width="100" height="60" as="geometry" />
        </mxCell>
      </root>
    </mxGraphModel>
  </diagram>
</mxfile>
